<svg width="1200" height="900" viewBox="0 0 1200 900" fill="none" xmlns="http://www.w3.org/2000/svg">
  <rect width="1200" height="900" rx="48" fill="#F6F3EA"/>
  <circle cx="229" cy="185" r="128" fill="#E5B54A" fill-opacity="0.18"/>
  <circle cx="972" cy="198" r="154" fill="#2C5E87" fill-opacity="0.12"/>
  <circle cx="1043" cy="724" r="172" fill="#88B4D6" fill-opacity="0.2"/>
  <path d="M177 715C273 582 392 516 533 516C674 516 793 582 889 715" stroke="#183A62" stroke-width="28" stroke-linecap="round"/>
  <circle cx="355" cy="337" r="79" fill="#183A62"/>
  <circle cx="602" cy="289" r="96" fill="#E5B54A"/>
  <circle cx="847" cy="356" r="74" fill="#5A86A8"/>
  <path d="M287 642C287 562 352 497 432 497H458C538 497 603 562 603 642V720H287V642Z" fill="#EBCB86"/>
  <path d="M468 497H421C341 497 276 562 276 642V720H603V632C603 558 543 497 468 497Z" fill="#24507F"/>
  <path d="M483 720V585C483 535 524 494 574 494H630C680 494 721 535 721 585V720H483Z" fill="#E5B54A"/>
  <path d="M580 720V623C580 573 621 532 671 532H719C769 532 810 573 810 623V720H580Z" fill="#5A86A8"/>
  <rect x="80" y="88" width="200" height="14" rx="7" fill="#183A62" fill-opacity="0.1"/>
  <rect x="80" y="116" width="156" height="14" rx="7" fill="#183A62" fill-opacity="0.08"/>
</svg>
